<svg xmlns="http://www.w3.org/2000/svg" width="1200" height="630" viewBox="0 0 1200 630">
<rect width="1200" height="630" fill="#f4f1ea"/><rect width="1200" height="18" fill="#171717"/><rect y="600" width="1200" height="30" fill="#f0ca3e"/>
<rect x="70" y="72" width="48" height="48" rx="14" fill="#ef5b4c"/><rect x="1040" y="60" width="80" height="80" rx="18" fill="#70c1b3"/>
<rect x="70" y="165" width="270" height="42" rx="21" fill="#171717"/><text x="91" y="193" font-family="Arial,sans-serif" font-size="18" font-weight="700" fill="#fff">BROWSER-BASED • FREE</text>
<text x="68" y="302" font-family="Arial,sans-serif" font-size="76" font-weight="800" fill="#171717">Bead Grid</text><text x="68" y="384" font-family="Arial,sans-serif" font-size="76" font-weight="800" fill="#171717">Studio</text>
<text x="73" y="440" font-family="Arial,sans-serif" font-size="28" fill="#454545">Design fuse bead patterns and pixel art.</text><text x="73" y="485" font-family="Arial,sans-serif" font-size="20" font-weight="700" fill="#66625c">Paint  •  Mirror  •  Count  •  Export PNG</text>
<rect x="690" y="80" width="445" height="465" rx="36" fill="#fff" stroke="#d8d3ca" stroke-width="3"/><circle cx="729" cy="126" r="7.5" fill="#e9e5dc"/><circle cx="753" cy="126" r="7.5" fill="#e9e5dc"/><circle cx="777" cy="126" r="7.5" fill="#e9e5dc"/><circle cx="801" cy="126" r="7.5" fill="#e9e5dc"/><circle cx="825" cy="126" r="7.5" fill="#e9e5dc"/><circle cx="849" cy="126" r="7.5" fill="#e9e5dc"/><circle cx="873" cy="126" r="7.5" fill="#e9e5dc"/><circle cx="897" cy="126" r="7.5" fill="#e9e5dc"/><circle cx="921" cy="126" r="7.5" fill="#e9e5dc"/><circle cx="945" cy="126" r="7.5" fill="#e9e5dc"/><circle cx="969" cy="126" r="7.5" fill="#e9e5dc"/><circle cx="993" cy="126" r="7.5" fill="#e9e5dc"/><circle cx="1017" cy="126" r="7.5" fill="#e9e5dc"/><circle cx="1041" cy="126" r="7.5" fill="#e9e5dc"/><circle cx="1065" cy="126" r="7.5" fill="#e9e5dc"/><circle cx="1089" cy="126" r="7.5" fill="#e9e5dc"/><circle cx="729" cy="150" r="7.5" fill="#e9e5dc"/><circle cx="753" cy="150" r="7.5" fill="#e9e5dc"/><circle cx="777" cy="150" r="7.5" fill="#e9e5dc"/><circle cx="801" cy="150" r="7.5" fill="#e9e5dc"/><circle cx="825" cy="150" r="7.5" fill="#e9e5dc"/><circle cx="849" cy="150" r="7.5" fill="#e9e5dc"/><circle cx="873" cy="150" r="7.5" fill="#e9e5dc"/><circle cx="897" cy="150" r="7.5" fill="#e9e5dc"/><circle cx="921" cy="150" r="7.5" fill="#e9e5dc"/><circle cx="945" cy="150" r="7.5" fill="#e9e5dc"/><circle cx="969" cy="150" r="7.5" fill="#e9e5dc"/><circle cx="993" cy="150" r="7.5" fill="#e9e5dc"/><circle cx="1017" cy="150" r="7.5" fill="#e9e5dc"/><circle cx="1041" cy="150" r="7.5" fill="#e9e5dc"/><circle cx="1065" cy="150" r="7.5" fill="#e9e5dc"/><circle cx="1089" cy="150" r="7.5" fill="#e9e5dc"/><circle cx="729" cy="174" r="7.5" fill="#e9e5dc"/><circle cx="753" cy="174" r="7.5" fill="#e9e5dc"/><circle cx="777" cy="174" r="7.5" fill="#e9e5dc"/><circle cx="801" cy="174" r="7.5" fill="#e9e5dc"/><circle cx="825" cy="174" r="7.5" fill="#e9e5dc"/><circle cx="849" cy="174" r="7.5" fill="#e9e5dc"/><circle cx="873" cy="174" r="7.5" fill="#e9e5dc"/><circle cx="897" cy="174" r="7.5" fill="#e9e5dc"/><circle cx="921" cy="174" r="7.5" fill="#e9e5dc"/><circle cx="945" cy="174" r="7.5" fill="#e9e5dc"/><circle cx="969" cy="174" r="7.5" fill="#e9e5dc"/><circle cx="993" cy="174" r="7.5" fill="#e9e5dc"/><circle cx="1017" cy="174" r="7.5" fill="#e9e5dc"/><circle cx="1041" cy="174" r="7.5" fill="#e9e5dc"/><circle cx="1065" cy="174" r="7.5" fill="#e9e5dc"/><circle cx="1089" cy="174" r="7.5" fill="#e9e5dc"/><circle cx="729" cy="198" r="7.5" fill="#e9e5dc"/><circle cx="753" cy="198" r="7.5" fill="#e9e5dc"/><circle cx="777" cy="198" r="7.5" fill="#e9e5dc"/><circle cx="801" cy="198" r="7.5" fill="#e9e5dc"/><circle cx="825" cy="198" r="7.5" fill="#e9e5dc"/><circle cx="849" cy="198" r="7.5" fill="#e9e5dc"/><circle cx="873" cy="198" r="7.5" fill="#e9e5dc"/><circle cx="897" cy="198" r="7.5" fill="#e9e5dc"/><circle cx="921" cy="198" r="7.5" fill="#e9e5dc"/><circle cx="945" cy="198" r="7.5" fill="#e9e5dc"/><circle cx="969" cy="198" r="7.5" fill="#e9e5dc"/><circle cx="993" cy="198" r="7.5" fill="#e9e5dc"/><circle cx="1017" cy="198" r="7.5" fill="#e9e5dc"/><circle cx="1041" cy="198" r="7.5" fill="#e9e5dc"/><circle cx="1065" cy="198" r="7.5" fill="#e9e5dc"/><circle cx="1089" cy="198" r="7.5" fill="#e9e5dc"/><circle cx="729" cy="222" r="7.5" fill="#e9e5dc"/><circle cx="753" cy="222" r="7.5" fill="#e9e5dc"/><circle cx="777" cy="222" r="7.5" fill="#e9e5dc"/><circle cx="801" cy="222" r="7.5" fill="#e9e5dc"/><circle cx="825" cy="222" r="7.5" fill="#e9e5dc"/><circle cx="849" cy="222" r="7.5" fill="#e9e5dc"/><circle cx="873" cy="222" r="7.5" fill="#e9e5dc"/><circle cx="897" cy="222" r="7.5" fill="#e9e5dc"/><circle cx="921" cy="222" r="7.5" fill="#e9e5dc"/><circle cx="945" cy="222" r="7.5" fill="#e9e5dc"/><circle cx="969" cy="222" r="7.5" fill="#e9e5dc"/><circle cx="993" cy="222" r="7.5" fill="#e9e5dc"/><circle cx="1017" cy="222" r="7.5" fill="#e9e5dc"/><circle cx="1041" cy="222" r="7.5" fill="#e9e5dc"/><circle cx="1065" cy="222" r="7.5" fill="#e9e5dc"/><circle cx="1089" cy="222" r="7.5" fill="#e9e5dc"/><circle cx="729" cy="246" r="7.5" fill="#e9e5dc"/><circle cx="753" cy="246" r="7.5" fill="#e9e5dc"/><circle cx="777" cy="246" r="7.5" fill="#e9e5dc"/><circle cx="801" cy="246" r="7.5" fill="#e9e5dc"/><circle cx="825" cy="246" r="7.5" fill="#e9e5dc"/><circle cx="849" cy="246" r="7.5" fill="#e9e5dc"/><circle cx="873" cy="246" r="7.5" fill="#e9e5dc"/><circle cx="897" cy="246" r="7.5" fill="#e9e5dc"/><circle cx="921" cy="246" r="7.5" fill="#e9e5dc"/><circle cx="945" cy="246" r="7.5" fill="#e9e5dc"/><circle cx="969" cy="246" r="7.5" fill="#e9e5dc"/><circle cx="993" cy="246" r="7.5" fill="#e9e5dc"/><circle cx="1017" cy="246" r="7.5" fill="#e9e5dc"/><circle cx="1041" cy="246" r="7.5" fill="#e9e5dc"/><circle cx="1065" cy="246" r="7.5" fill="#e9e5dc"/><circle cx="1089" cy="246" r="7.5" fill="#e9e5dc"/><circle cx="729" cy="270" r="7.5" fill="#e9e5dc"/><circle cx="753" cy="270" r="7.5" fill="#e9e5dc"/><circle cx="777" cy="270" r="7.5" fill="#e9e5dc"/><circle cx="801" cy="270" r="7.5" fill="#e9e5dc"/><circle cx="825" cy="270" r="7.5" fill="#e9e5dc"/><circle cx="849" cy="270" r="7.5" fill="#e9e5dc"/><circle cx="873" cy="270" r="7.5" fill="#e9e5dc"/><circle cx="897" cy="270" r="7.5" fill="#e9e5dc"/><circle cx="921" cy="270" r="7.5" fill="#e9e5dc"/><circle cx="945" cy="270" r="7.5" fill="#e9e5dc"/><circle cx="969" cy="270" r="7.5" fill="#e9e5dc"/><circle cx="993" cy="270" r="7.5" fill="#e9e5dc"/><circle cx="1017" cy="270" r="7.5" fill="#e9e5dc"/><circle cx="1041" cy="270" r="7.5" fill="#e9e5dc"/><circle cx="1065" cy="270" r="7.5" fill="#e9e5dc"/><circle cx="1089" cy="270" r="7.5" fill="#e9e5dc"/><circle cx="729" cy="294" r="7.5" fill="#e9e5dc"/><circle cx="753" cy="294" r="7.5" fill="#e9e5dc"/><circle cx="777" cy="294" r="7.5" fill="#e9e5dc"/><circle cx="801" cy="294" r="7.5" fill="#e9e5dc"/><circle cx="825" cy="294" r="7.5" fill="#e9e5dc"/><circle cx="849" cy="294" r="7.5" fill="#e9e5dc"/><circle cx="873" cy="294" r="7.5" fill="#e9e5dc"/><circle cx="897" cy="294" r="7.5" fill="#e9e5dc"/><circle cx="921" cy="294" r="7.5" fill="#e9e5dc"/><circle cx="945" cy="294" r="7.5" fill="#e9e5dc"/><circle cx="969" cy="294" r="7.5" fill="#e9e5dc"/><circle cx="993" cy="294" r="7.5" fill="#e9e5dc"/><circle cx="1017" cy="294" r="7.5" fill="#e9e5dc"/><circle cx="1041" cy="294" r="7.5" fill="#e9e5dc"/><circle cx="1065" cy="294" r="7.5" fill="#e9e5dc"/><circle cx="1089" cy="294" r="7.5" fill="#e9e5dc"/><circle cx="729" cy="318" r="7.5" fill="#e9e5dc"/><circle cx="753" cy="318" r="7.5" fill="#e9e5dc"/><circle cx="777" cy="318" r="7.5" fill="#e9e5dc"/><circle cx="801" cy="318" r="7.5" fill="#e9e5dc"/><circle cx="825" cy="318" r="7.5" fill="#e9e5dc"/><circle cx="849" cy="318" r="7.5" fill="#e9e5dc"/><circle cx="873" cy="318" r="7.5" fill="#e9e5dc"/><circle cx="897" cy="318" r="7.5" fill="#e9e5dc"/><circle cx="921" cy="318" r="7.5" fill="#e9e5dc"/><circle cx="945" cy="318" r="7.5" fill="#e9e5dc"/><circle cx="969" cy="318" r="7.5" fill="#e9e5dc"/><circle cx="993" cy="318" r="7.5" fill="#e9e5dc"/><circle cx="1017" cy="318" r="7.5" fill="#e9e5dc"/><circle cx="1041" cy="318" r="7.5" fill="#e9e5dc"/><circle cx="1065" cy="318" r="7.5" fill="#e9e5dc"/><circle cx="1089" cy="318" r="7.5" fill="#e9e5dc"/><circle cx="729" cy="342" r="7.5" fill="#e9e5dc"/><circle cx="753" cy="342" r="7.5" fill="#e9e5dc"/><circle cx="777" cy="342" r="7.5" fill="#e9e5dc"/><circle cx="801" cy="342" r="7.5" fill="#e9e5dc"/><circle cx="825" cy="342" r="7.5" fill="#e9e5dc"/><circle cx="849" cy="342" r="7.5" fill="#e9e5dc"/><circle cx="873" cy="342" r="7.5" fill="#e9e5dc"/><circle cx="897" cy="342" r="7.5" fill="#e9e5dc"/><circle cx="921" cy="342" r="7.5" fill="#e9e5dc"/><circle cx="945" cy="342" r="7.5" fill="#e9e5dc"/><circle cx="969" cy="342" r="7.5" fill="#e9e5dc"/><circle cx="993" cy="342" r="7.5" fill="#e9e5dc"/><circle cx="1017" cy="342" r="7.5" fill="#e9e5dc"/><circle cx="1041" cy="342" r="7.5" fill="#e9e5dc"/><circle cx="1065" cy="342" r="7.5" fill="#e9e5dc"/><circle cx="1089" cy="342" r="7.5" fill="#e9e5dc"/><circle cx="729" cy="366" r="7.5" fill="#e9e5dc"/><circle cx="753" cy="366" r="7.5" fill="#e9e5dc"/><circle cx="777" cy="366" r="7.5" fill="#e9e5dc"/><circle cx="801" cy="366" r="7.5" fill="#e9e5dc"/><circle cx="825" cy="366" r="7.5" fill="#e9e5dc"/><circle cx="849" cy="366" r="7.5" fill="#e9e5dc"/><circle cx="873" cy="366" r="7.5" fill="#e9e5dc"/><circle cx="897" cy="366" r="7.5" fill="#e9e5dc"/><circle cx="921" cy="366" r="7.5" fill="#e9e5dc"/><circle cx="945" cy="366" r="7.5" fill="#e9e5dc"/><circle cx="969" cy="366" r="7.5" fill="#e9e5dc"/><circle cx="993" cy="366" r="7.5" fill="#e9e5dc"/><circle cx="1017" cy="366" r="7.5" fill="#e9e5dc"/><circle cx="1041" cy="366" r="7.5" fill="#e9e5dc"/><circle cx="1065" cy="366" r="7.5" fill="#e9e5dc"/><circle cx="1089" cy="366" r="7.5" fill="#e9e5dc"/><circle cx="729" cy="390" r="7.5" fill="#e9e5dc"/><circle cx="753" cy="390" r="7.5" fill="#e9e5dc"/><circle cx="777" cy="390" r="7.5" fill="#e9e5dc"/><circle cx="801" cy="390" r="7.5" fill="#e9e5dc"/><circle cx="825" cy="390" r="7.5" fill="#e9e5dc"/><circle cx="849" cy="390" r="7.5" fill="#e9e5dc"/><circle cx="873" cy="390" r="7.5" fill="#e9e5dc"/><circle cx="897" cy="390" r="7.5" fill="#e9e5dc"/><circle cx="921" cy="390" r="7.5" fill="#e9e5dc"/><circle cx="945" cy="390" r="7.5" fill="#e9e5dc"/><circle cx="969" cy="390" r="7.5" fill="#e9e5dc"/><circle cx="993" cy="390" r="7.5" fill="#e9e5dc"/><circle cx="1017" cy="390" r="7.5" fill="#e9e5dc"/><circle cx="1041" cy="390" r="7.5" fill="#e9e5dc"/><circle cx="1065" cy="390" r="7.5" fill="#e9e5dc"/><circle cx="1089" cy="390" r="7.5" fill="#e9e5dc"/><circle cx="729" cy="414" r="7.5" fill="#e9e5dc"/><circle cx="753" cy="414" r="7.5" fill="#e9e5dc"/><circle cx="777" cy="414" r="7.5" fill="#e9e5dc"/><circle cx="801" cy="414" r="7.5" fill="#e9e5dc"/><circle cx="825" cy="414" r="7.5" fill="#e9e5dc"/><circle cx="849" cy="414" r="7.5" fill="#e9e5dc"/><circle cx="873" cy="414" r="7.5" fill="#e9e5dc"/><circle cx="897" cy="414" r="7.5" fill="#e9e5dc"/><circle cx="921" cy="414" r="7.5" fill="#e9e5dc"/><circle cx="945" cy="414" r="7.5" fill="#e9e5dc"/><circle cx="969" cy="414" r="7.5" fill="#e9e5dc"/><circle cx="993" cy="414" r="7.5" fill="#e9e5dc"/><circle cx="1017" cy="414" r="7.5" fill="#e9e5dc"/><circle cx="1041" cy="414" r="7.5" fill="#e9e5dc"/><circle cx="1065" cy="414" r="7.5" fill="#e9e5dc"/><circle cx="1089" cy="414" r="7.5" fill="#e9e5dc"/><circle cx="729" cy="438" r="7.5" fill="#e9e5dc"/><circle cx="753" cy="438" r="7.5" fill="#e9e5dc"/><circle cx="777" cy="438" r="7.5" fill="#e9e5dc"/><circle cx="801" cy="438" r="7.5" fill="#e9e5dc"/><circle cx="825" cy="438" r="7.5" fill="#e9e5dc"/><circle cx="849" cy="438" r="7.5" fill="#e9e5dc"/><circle cx="873" cy="438" r="7.5" fill="#e9e5dc"/><circle cx="897" cy="438" r="7.5" fill="#e9e5dc"/><circle cx="921" cy="438" r="7.5" fill="#e9e5dc"/><circle cx="945" cy="438" r="7.5" fill="#e9e5dc"/><circle cx="969" cy="438" r="7.5" fill="#e9e5dc"/><circle cx="993" cy="438" r="7.5" fill="#e9e5dc"/><circle cx="1017" cy="438" r="7.5" fill="#e9e5dc"/><circle cx="1041" cy="438" r="7.5" fill="#e9e5dc"/><circle cx="1065" cy="438" r="7.5" fill="#e9e5dc"/><circle cx="1089" cy="438" r="7.5" fill="#e9e5dc"/><circle cx="729" cy="462" r="7.5" fill="#e9e5dc"/><circle cx="753" cy="462" r="7.5" fill="#e9e5dc"/><circle cx="777" cy="462" r="7.5" fill="#e9e5dc"/><circle cx="801" cy="462" r="7.5" fill="#e9e5dc"/><circle cx="825" cy="462" r="7.5" fill="#e9e5dc"/><circle cx="849" cy="462" r="7.5" fill="#e9e5dc"/><circle cx="873" cy="462" r="7.5" fill="#e9e5dc"/><circle cx="897" cy="462" r="7.5" fill="#e9e5dc"/><circle cx="921" cy="462" r="7.5" fill="#e9e5dc"/><circle cx="945" cy="462" r="7.5" fill="#e9e5dc"/><circle cx="969" cy="462" r="7.5" fill="#e9e5dc"/><circle cx="993" cy="462" r="7.5" fill="#e9e5dc"/><circle cx="1017" cy="462" r="7.5" fill="#e9e5dc"/><circle cx="1041" cy="462" r="7.5" fill="#e9e5dc"/><circle cx="1065" cy="462" r="7.5" fill="#e9e5dc"/><circle cx="1089" cy="462" r="7.5" fill="#e9e5dc"/><circle cx="729" cy="486" r="7.5" fill="#e9e5dc"/><circle cx="753" cy="486" r="7.5" fill="#e9e5dc"/><circle cx="777" cy="486" r="7.5" fill="#e9e5dc"/><circle cx="801" cy="486" r="7.5" fill="#e9e5dc"/><circle cx="825" cy="486" r="7.5" fill="#e9e5dc"/><circle cx="849" cy="486" r="7.5" fill="#e9e5dc"/><circle cx="873" cy="486" r="7.5" fill="#e9e5dc"/><circle cx="897" cy="486" r="7.5" fill="#e9e5dc"/><circle cx="921" cy="486" r="7.5" fill="#e9e5dc"/><circle cx="945" cy="486" r="7.5" fill="#e9e5dc"/><circle cx="969" cy="486" r="7.5" fill="#e9e5dc"/><circle cx="993" cy="486" r="7.5" fill="#e9e5dc"/><circle cx="1017" cy="486" r="7.5" fill="#e9e5dc"/><circle cx="1041" cy="486" r="7.5" fill="#e9e5dc"/><circle cx="1065" cy="486" r="7.5" fill="#e9e5dc"/><circle cx="1089" cy="486" r="7.5" fill="#e9e5dc"/><circle cx="825" cy="126" r="8.5" fill="#f0ca3e" stroke="#fff"/><circle cx="849" cy="126" r="8.5" fill="#f0ca3e" stroke="#fff"/><circle cx="969" cy="126" r="8.5" fill="#f0ca3e" stroke="#fff"/><circle cx="993" cy="126" r="8.5" fill="#f0ca3e" stroke="#fff"/><circle cx="801" cy="150" r="8.5" fill="#f0ca3e" stroke="#fff"/><circle cx="825" cy="150" r="8.5" fill="#f0ca3e" stroke="#fff"/><circle cx="849" cy="150" r="8.5" fill="#f0ca3e" stroke="#fff"/><circle cx="873" cy="150" r="8.5" fill="#f0ca3e" stroke="#fff"/><circle cx="945" cy="150" r="8.5" fill="#f0ca3e" stroke="#fff"/><circle cx="969" cy="150" r="8.5" fill="#f0ca3e" stroke="#fff"/><circle cx="993" cy="150" r="8.5" fill="#f0ca3e" stroke="#fff"/><circle cx="1017" cy="150" r="8.5" fill="#f0ca3e" stroke="#fff"/><circle cx="777" cy="174" r="8.5" fill="#f0ca3e" stroke="#fff"/><circle cx="801" cy="174" r="8.5" fill="#f0ca3e" stroke="#fff"/><circle cx="825" cy="174" r="8.5" fill="#ef5b4c" stroke="#fff"/><circle cx="849" cy="174" r="8.5" fill="#ef5b4c" stroke="#fff"/><circle cx="873" cy="174" r="8.5" fill="#f0ca3e" stroke="#fff"/><circle cx="897" cy="174" r="8.5" fill="#f0ca3e" stroke="#fff"/><circle cx="921" cy="174" r="8.5" fill="#f0ca3e" stroke="#fff"/><circle cx="945" cy="174" r="8.5" fill="#f0ca3e" stroke="#fff"/><circle cx="969" cy="174" r="8.5" fill="#ef5b4c" stroke="#fff"/><circle cx="993" cy="174" r="8.5" fill="#ef5b4c" stroke="#fff"/><circle cx="1017" cy="174" r="8.5" fill="#f0ca3e" stroke="#fff"/><circle cx="1041" cy="174" r="8.5" fill="#f0ca3e" stroke="#fff"/><circle cx="777" cy="198" r="8.5" fill="#f0ca3e" stroke="#fff"/><circle cx="801" cy="198" r="8.5" fill="#ef5b4c" stroke="#fff"/><circle cx="825" cy="198" r="8.5" fill="#ef5b4c" stroke="#fff"/><circle cx="849" cy="198" r="8.5" fill="#ef5b4c" stroke="#fff"/><circle cx="873" cy="198" r="8.5" fill="#ef5b4c" stroke="#fff"/><circle cx="897" cy="198" r="8.5" fill="#ef5b4c" stroke="#fff"/><circle cx="921" cy="198" r="8.5" fill="#ef5b4c" stroke="#fff"/><circle cx="945" cy="198" r="8.5" fill="#ef5b4c" stroke="#fff"/><circle cx="969" cy="198" r="8.5" fill="#ef5b4c" stroke="#fff"/><circle cx="993" cy="198" r="8.5" fill="#ef5b4c" stroke="#fff"/><circle cx="1017" cy="198" r="8.5" fill="#ef5b4c" stroke="#fff"/><circle cx="1041" cy="198" r="8.5" fill="#f0ca3e" stroke="#fff"/><circle cx="801" cy="222" r="8.5" fill="#ef5b4c" stroke="#fff"/><circle cx="825" cy="222" r="8.5" fill="#ef5b4c" stroke="#fff"/><circle cx="849" cy="222" r="8.5" fill="#ef5b4c" stroke="#fff"/><circle cx="873" cy="222" r="8.5" fill="#ef5b4c" stroke="#fff"/><circle cx="897" cy="222" r="8.5" fill="#ef5b4c" stroke="#fff"/><circle cx="921" cy="222" r="8.5" fill="#ef5b4c" stroke="#fff"/><circle cx="945" cy="222" r="8.5" fill="#ef5b4c" stroke="#fff"/><circle cx="969" cy="222" r="8.5" fill="#ef5b4c" stroke="#fff"/><circle cx="993" cy="222" r="8.5" fill="#ef5b4c" stroke="#fff"/><circle cx="1017" cy="222" r="8.5" fill="#ef5b4c" stroke="#fff"/><circle cx="825" cy="246" r="8.5" fill="#ef5b4c" stroke="#fff"/><circle cx="849" cy="246" r="8.5" fill="#ef5b4c" stroke="#fff"/><circle cx="873" cy="246" r="8.5" fill="#ef5b4c" stroke="#fff"/><circle cx="897" cy="246" r="8.5" fill="#ef5b4c" stroke="#fff"/><circle cx="921" cy="246" r="8.5" fill="#ef5b4c" stroke="#fff"/><circle cx="945" cy="246" r="8.5" fill="#ef5b4c" stroke="#fff"/><circle cx="969" cy="246" r="8.5" fill="#ef5b4c" stroke="#fff"/><circle cx="993" cy="246" r="8.5" fill="#ef5b4c" stroke="#fff"/><circle cx="849" cy="270" r="8.5" fill="#ef5b4c" stroke="#fff"/><circle cx="873" cy="270" r="8.5" fill="#ef5b4c" stroke="#fff"/><circle cx="897" cy="270" r="8.5" fill="#ef5b4c" stroke="#fff"/><circle cx="921" cy="270" r="8.5" fill="#ef5b4c" stroke="#fff"/><circle cx="945" cy="270" r="8.5" fill="#ef5b4c" stroke="#fff"/><circle cx="969" cy="270" r="8.5" fill="#ef5b4c" stroke="#fff"/><circle cx="873" cy="294" r="8.5" fill="#ef5b4c" stroke="#fff"/><circle cx="897" cy="294" r="8.5" fill="#ef5b4c" stroke="#fff"/><circle cx="921" cy="294" r="8.5" fill="#ef5b4c" stroke="#fff"/><circle cx="945" cy="294" r="8.5" fill="#ef5b4c" stroke="#fff"/><circle cx="897" cy="318" r="8.5" fill="#ef5b4c" stroke="#fff"/><circle cx="921" cy="318" r="8.5" fill="#ef5b4c" stroke="#fff"/><circle cx="825" cy="366" r="8.5" fill="#70c1b3" stroke="#fff"/><circle cx="849" cy="366" r="8.5" fill="#70c1b3" stroke="#fff"/><circle cx="969" cy="366" r="8.5" fill="#70c1b3" stroke="#fff"/><circle cx="993" cy="366" r="8.5" fill="#70c1b3" stroke="#fff"/><circle cx="801" cy="390" r="8.5" fill="#70c1b3" stroke="#fff"/><circle cx="825" cy="390" r="8.5" fill="#70c1b3" stroke="#fff"/><circle cx="849" cy="390" r="8.5" fill="#70c1b3" stroke="#fff"/><circle cx="873" cy="390" r="8.5" fill="#70c1b3" stroke="#fff"/><circle cx="945" cy="390" r="8.5" fill="#70c1b3" stroke="#fff"/><circle cx="969" cy="390" r="8.5" fill="#70c1b3" stroke="#fff"/><circle cx="993" cy="390" r="8.5" fill="#70c1b3" stroke="#fff"/><circle cx="1017" cy="390" r="8.5" fill="#70c1b3" stroke="#fff"/><circle cx="777" cy="414" r="8.5" fill="#70c1b3" stroke="#fff"/><circle cx="801" cy="414" r="8.5" fill="#70c1b3" stroke="#fff"/><circle cx="825" cy="414" r="8.5" fill="#3282b8" stroke="#fff"/><circle cx="849" cy="414" r="8.5" fill="#3282b8" stroke="#fff"/><circle cx="873" cy="414" r="8.5" fill="#70c1b3" stroke="#fff"/><circle cx="897" cy="414" r="8.5" fill="#70c1b3" stroke="#fff"/><circle cx="921" cy="414" r="8.5" fill="#70c1b3" stroke="#fff"/><circle cx="945" cy="414" r="8.5" fill="#70c1b3" stroke="#fff"/><circle cx="969" cy="414" r="8.5" fill="#3282b8" stroke="#fff"/><circle cx="993" cy="414" r="8.5" fill="#3282b8" stroke="#fff"/><circle cx="1017" cy="414" r="8.5" fill="#70c1b3" stroke="#fff"/><circle cx="1041" cy="414" r="8.5" fill="#70c1b3" stroke="#fff"/><circle cx="801" cy="438" r="8.5" fill="#70c1b3" stroke="#fff"/><circle cx="825" cy="438" r="8.5" fill="#3282b8" stroke="#fff"/><circle cx="849" cy="438" r="8.5" fill="#3282b8" stroke="#fff"/><circle cx="873" cy="438" r="8.5" fill="#3282b8" stroke="#fff"/><circle cx="897" cy="438" r="8.5" fill="#3282b8" stroke="#fff"/><circle cx="921" cy="438" r="8.5" fill="#3282b8" stroke="#fff"/><circle cx="945" cy="438" r="8.5" fill="#3282b8" stroke="#fff"/><circle cx="969" cy="438" r="8.5" fill="#3282b8" stroke="#fff"/><circle cx="993" cy="438" r="8.5" fill="#70c1b3" stroke="#fff"/><circle cx="825" cy="462" r="8.5" fill="#70c1b3" stroke="#fff"/><circle cx="849" cy="462" r="8.5" fill="#70c1b3" stroke="#fff"/><circle cx="873" cy="462" r="8.5" fill="#3282b8" stroke="#fff"/><circle cx="897" cy="462" r="8.5" fill="#3282b8" stroke="#fff"/><circle cx="921" cy="462" r="8.5" fill="#3282b8" stroke="#fff"/><circle cx="945" cy="462" r="8.5" fill="#3282b8" stroke="#fff"/><circle cx="969" cy="462" r="8.5" fill="#70c1b3" stroke="#fff"/><circle cx="873" cy="486" r="8.5" fill="#70c1b3" stroke="#fff"/><circle cx="897" cy="486" r="8.5" fill="#70c1b3" stroke="#fff"/><circle cx="921" cy="486" r="8.5" fill="#70c1b3" stroke="#fff"/><circle cx="945" cy="486" r="8.5" fill="#70c1b3" stroke="#fff"/><circle cx="735" cy="521" r="14" fill="#ef5b4c"/><circle cx="775" cy="521" r="14" fill="#f0ca3e"/><circle cx="815" cy="521" r="14" fill="#3282b8"/><circle cx="855" cy="521" r="14" fill="#70c1b3"/><circle cx="895" cy="521" r="14" fill="#7656a6"/>
<rect x="950" y="492" width="150" height="46" rx="23" fill="#171717"/><text x="970" y="522" font-family="Arial,sans-serif" font-size="19" font-weight="700" fill="#fff">CREATE</text>
</svg>